External Loads File
version=1
nRows=31
nColumns=13
Range=5.000000e-03-10 seconds
endheader
time 	forceRightX 	forceRightY 	forceRightZ 	pointRightX 	pointRightY 	pointRightZ 	forceLeftX 	forceLeftY 	forceLeftZ 	pointLeftX 	pointLeftY 	pointLeftZ 		
7.505000 59.663514 98.595874 -0.000000 0.226096 0.166935 -0.124701 -70.630374 104.457275 -0.000000 0.412556 0.463825 -0.366221
7.510000 54.544916 82.319146 -0.000000 0.218518 0.172914 -0.124520 -70.506608 120.024916 -0.000000 0.418865 0.457662 -0.366525
7.515000 48.967290 65.920415 -0.000000 0.211333 0.179408 -0.124306 -70.467421 137.596325 -0.000000 0.424713 0.450782 -0.366881
7.520000 42.558610 49.399754 -0.000000 0.204438 0.186458 -0.124141 -70.860152 157.105769 -0.000000 0.430040 0.443254 -0.367157
7.525000 35.054366 33.065014 -0.000000 0.198103 0.193940 -0.123931 -71.983544 178.299727 -0.000000 0.435283 0.435199 -0.367633
7.530000 26.410127 17.549129 -0.000000 0.192277 0.201814 -0.123747 -74.236048 200.677759 -0.000000 0.439989 0.426654 -0.367618
7.535000 16.922860 3.589610 -0.000000 0.186484 0.210081 -0.123335 -77.528418 223.717836 -0.000000 0.444109 0.417537 -0.367862
7.540000 7.080825 -8.050844 -0.000000 0.182104 0.218692 -0.123367 -82.280837 246.580160 -0.000000 0.448124 0.407913 -0.368199
7.545000 -2.506552 -16.895488 -0.000000 0.177854 0.227461 -0.123405 -88.227007 268.744406 -0.000000 0.451734 0.398011 -0.368331
7.550000 -11.303153 -22.729884 -0.000000 0.174228 0.236594 -0.123432 -94.953898 289.956694 -0.000000 0.454901 0.387464 -0.368512
7.555000 -18.823511 -25.642547 -0.000000 0.171226 0.246100 -0.123414 -102.521151 310.014315 -0.000000 0.457707 0.376986 -0.368788
7.560000 -24.711430 -25.958402 -0.000000 0.168765 0.255712 -0.123416 -110.595525 328.993676 -0.000000 0.460057 0.366451 -0.368978
7.565000 -28.747601 -24.142552 -0.000000 0.167062 0.265425 -0.123387 -118.751450 347.158758 -0.000000 0.461958 0.355839 -0.369204
7.570000 -30.889290 -20.691206 -0.000000 0.165720 0.275447 -0.123424 -125.991356 365.132165 -0.000000 0.463229 0.344957 -0.369094
7.575000 -31.167465 -16.224914 -0.000000 0.165100 0.285593 -0.123373 -132.427978 383.263003 -0.000000 0.463998 0.334035 -0.369249
7.580000 -29.814678 -11.272430 -0.000000 0.165079 0.295997 -0.123368 -137.381406 402.194542 -0.000000 0.464438 0.322975 -0.369369
7.585000 -27.164671 -6.352568 -0.000000 0.165623 0.306506 -0.123416 -140.961302 422.239257 -0.000000 0.464236 0.311899 -0.369238
7.590000 -23.667064 -1.841169 -0.000000 0.166802 0.317106 -0.123497 -142.929712 443.715584 -0.000000 0.463430 0.300849 -0.369142
7.595000 -19.809766 2.044757 -0.000000 0.168806 0.327771 -0.123544 -142.951783 466.845134 -0.000000 0.461939 0.289832 -0.369051
7.600000 -16.058442 5.222926 -0.000000 0.171279 0.338324 -0.123647 -141.221619 491.573547 -0.000000 0.459937 0.278931 -0.368962
7.605000 -12.811742 7.763356 -0.000000 0.174169 0.348896 -0.123792 -137.496605 517.887301 -0.000000 0.457381 0.268200 -0.368888
7.610000 -10.379742 9.853346 -0.000000 0.177907 0.359290 -0.123923 -131.492517 545.672602 -0.000000 0.454264 0.257507 -0.368731
7.615000 -8.994445 11.779826 -0.000000 0.182217 0.369504 -0.124225 -123.696987 574.520510 -0.000000 0.450503 0.247241 -0.368703
7.620000 -8.765890 13.933605 -0.000000 0.187097 0.379514 -0.124485 -113.780858 604.132427 -0.000000 0.446217 0.237296 -0.368531
7.625000 -9.666222 16.768790 -0.000000 0.192508 0.389361 -0.124491 -101.250140 634.124521 -0.000000 0.441406 0.227570 -0.368489
7.630000 -11.539967 20.773730 -0.000000 0.198471 0.398970 -0.124748 -86.096695 663.899677 -0.000000 0.435933 0.218259 -0.368464
7.635000 -14.114251 26.420941 -0.000000 0.205064 0.408208 -0.124950 -68.477660 692.720592 -0.000000 0.429974 0.209434 -0.368296
7.640000 -16.989879 34.102312 -0.000000 0.212011 0.417115 -0.125366 -48.127687 719.784912 -0.000000 0.423496 0.200882 -0.368171
7.645000 -19.723846 44.021091 -0.000000 0.219573 0.425496 -0.125500 -25.642238 744.144386 -0.000000 0.416532 0.193016 -0.367883
7.650000 -21.857451 56.156701 -0.000000 0.227423 0.433539 -0.125719 -1.164213 764.891086 -0.000000 0.409126 0.185640 -0.367641
7.655000 -23.026325 70.235492 -0.000000 0.235702 0.440972 -0.125994 24.938900 781.176975 -0.000000 0.401226 0.178741 -0.367257
